<?xml version="1.0" encoding="UTF-8"?> <!-- Generator: Adobe Illustrator 25.0.1, SVG Export Plug-In . SVG Version: 6.00 Build 0) --> <svg xmlns="http://www.w3.org/2000/svg" xmlns:xlink="http://www.w3.org/1999/xlink" id="Layer_1" x="0px" y="0px" width="462.2px" height="462.2px" viewBox="0 0 462.2 462.2" style="enable-background:new 0 0 462.2 462.2;" xml:space="preserve"> <style type="text/css"> .st0{fill:#0B2E44;} .st1{fill:#488599;} .st2{fill:#0D242E;} .st3{fill:#C3DCDE;} .st4{fill:#FFFFFF;} .st5{fill:#E64360;} .st6{fill:#B4C3D3;} .st7{fill:#778A9D;} .st8{fill:#E64360;stroke:#E35D58;stroke-miterlimit:10;} .st9{fill:#004B69;} .st10{opacity:0.5;} .st11{fill:#A2C3DC;} </style> <path id="header-image-no-diagonal-1_1x-a" class="st0" d="M231.1,0L231.1,0c127.6,0,231.1,103.5,231.1,231.1l0,0 c0,127.6-103.5,231.1-231.1,231.1l0,0C103.5,462.2,0,358.7,0,231.1l0,0C0,103.5,103.5,0,231.1,0z"></path> <path class="st1" d="M370.3,145.8H106.6c-2.2,0-4,1.8-4,4V329h271.7V149.9C374.3,147.6,372.5,145.8,370.3,145.8 C370.3,145.8,370.3,145.8,370.3,145.8z"></path> <rect x="123.2" y="161.7" class="st2" width="230.4" height="151.4"></rect> <path class="st3" d="M105.6,348.8H373c10.9,0,51.7-8.9,51.7-19.8H52.3C52.3,340,94.7,348.8,105.6,348.8z"></path> <path class="st4" d="M236.2,179.3c-15.4,0-27.9,10.3-27.9,22.9v25.7c0.3,1.8,2.1,3,3.9,2.6c1.3-0.3,2.4-1.3,2.6-2.6v-25.7 c0-9.7,9.6-17.5,21.4-17.5s21.4,7.9,21.4,17.5v30.5c0.3,1.8,2.1,3,3.9,2.6c1.3-0.3,2.4-1.3,2.6-2.6v-30.5 C264.2,189.6,251.6,179.3,236.2,179.3z"></path> <rect x="200" y="224.7" class="st5" width="72.4" height="59.4"></rect> <path class="st2" d="M245.2,245.1c0-4.1-4-7.4-9-7.4s-9,3.3-9,7.4c0.1,2.6,1.6,5,4,6.1l-3.8,19.8H245l-3.8-19.8 C243.6,250.1,245.1,247.7,245.2,245.1z"></path> <path class="st6" d="M79.6,223.5c-31.4,0-56.8,25.4-56.8,56.8c0,14.9,5.9,29.2,16.3,39.9c6.2-7,14.1-12.3,23-15.3L54.4,291 c-3.8-5.5-5.1-12.4-3.4-19c0.2-0.9,0.5-1.7,0.8-2.5c5.5-13.7,14.6-30.1,27.9-30.5c13.2,0.4,22.4,16.8,27.9,30.5 c0.3,0.8,0.6,1.7,0.8,2.5c1.6,6.5,0.4,13.4-3.5,19l-7.8,13.8c8.9,3,16.8,8.3,23,15.3c22-22.3,21.7-58.3-0.6-80.3 C108.9,229.3,94.6,223.5,79.6,223.5L79.6,223.5z"></path> <path class="st7" d="M97.1,304.8l7.8-13.8c3.8-5.5,5.1-12.4,3.5-19c-0.2-0.9-0.5-1.7-0.8-2.5c-5.5-13.7-14.6-30.1-27.9-30.5 c-13.2,0.4-22.4,16.8-27.9,30.5c-0.3,0.8-0.6,1.7-0.8,2.5c-1.6,6.5-0.4,13.4,3.4,18.9l7.8,13.8c-8.9,3-16.8,8.3-23,15.3 c22,22.3,57.9,22.6,80.3,0.6c0.2-0.2,0.4-0.4,0.6-0.6C113.8,313.1,105.9,307.8,97.1,304.8z M90.4,271.4c3.7-0.5,7.1,2.5,7.1,2.5 s-2.6,3.7-6.2,4.2s-7.1-2.5-7.1-2.5S86.7,271.8,90.4,271.4z M68.8,271.4c3.7,0.5,6.2,4.2,6.2,4.2s-3.4,3-7.1,2.5s-6.2-4.2-6.2-4.2 S65.2,270.9,68.8,271.4L68.8,271.4z M79.6,306.1c-11.7,0-21.4-14.9-23.5-27.5c3.1,2.4,6.8,4,10.7,4.4h2.1c1.8-0.1,3.6-0.7,5.1-1.6 c1.5-0.9,3.2-1.4,4.9-1.4v0c0.2,0,0.5,0,0.7,0s0.5,0,0.8,0v0c1.7,0.1,3.4,0.5,4.9,1.4c1.6,0.9,3.3,1.5,5.1,1.6h2.1 c3.9-0.5,7.6-2,10.7-4.4C101,291.3,91.3,306.1,79.6,306.1L79.6,306.1z"></path> <path class="st4" d="M90.4,283.1c-1.8-0.1-3.6-0.7-5.1-1.6c-1.5-0.9-3.2-1.4-4.9-1.4v0c-0.2,0-0.5,0-0.8,0s-0.5,0-0.7,0v0 c-1.7,0.1-3.4,0.5-4.9,1.4c-1.6,0.9-3.3,1.5-5.1,1.6h-2.1c-3.9-0.5-7.6-2-10.7-4.4c2.1,12.6,11.8,27.5,23.5,27.5 s21.5-14.9,23.5-27.5c-3.1,2.4-6.8,4-10.7,4.4H90.4z"></path> <path class="st4" d="M68.9,271.4c-3.7-0.5-7.1,2.5-7.1,2.5s2.6,3.7,6.2,4.2s7.1-2.5,7.1-2.5S72.5,271.8,68.9,271.4z"></path> <path class="st4" d="M90.4,271.4c-3.7,0.5-6.2,4.2-6.2,4.2s3.4,3,7.1,2.5s6.2-4.2,6.2-4.2S94,270.9,90.4,271.4z"></path> <path class="st5" d="M321,235.4c-0.4,0-0.8-0.1-1.2-0.4l-2.3-1.5c-1.2-0.8-11.5-7.6-15.1-10.3c-4-3-6.4-8.2-6.4-14v-24.5 c0-1.1,0.9-2.1,2.1-2.1c9.6,0,21.5-9.2,21.6-9.2c0.7-0.6,1.8-0.6,2.5,0l0,0c0.1,0.1,12.1,9.2,21.6,9.2c1.1,0,2.1,0.9,2.1,2.1v0v24.6 c0,5.8-2.4,11-6.4,14c-3.6,2.7-14,9.5-15.1,10.3l-2.3,1.5C321.8,235.3,321.4,235.4,321,235.4z M300.2,186.7v22.6 c0,4.4,1.8,8.4,4.7,10.6c3.6,2.6,14.5,9.8,14.9,10.1l1.1,0.8l1.1-0.8c0.5-0.3,11.4-7.5,15-10.1c3-2.2,4.7-6.2,4.7-10.6v-22.6 c-8.5-0.9-17.5-6.7-20.8-9.1C317.7,180,308.7,185.9,300.2,186.7L300.2,186.7z"></path> <path class="st5" d="M319.3,212.6c-0.6,0-1.1-0.2-1.5-0.6l-7.6-7.6c-0.8-0.8-0.9-2.1-0.1-2.9c0.8-0.8,2.1-0.9,2.9-0.1 c0,0,0.1,0.1,0.1,0.1l6.2,6.1l11-11c0.8-0.8,2.1-0.8,3,0c0.8,0.8,0.8,2.1,0,3l0,0L320.8,212C320.4,212.4,319.8,212.6,319.3,212.6z"></path> <path class="st4" d="M127,225.9c-1.1-1.9-3.6-2.5-5.5-1.4c-0.6,0.3-1.1,0.8-1.4,1.4l-16.5,28.5c-1.1,1.9-0.4,4.4,1.5,5.5 c0.6,0.3,1.3,0.5,2,0.5h33c2.2,0,4-1.8,4-4c0-0.7-0.2-1.4-0.5-2L127,225.9z"></path> <path class="st8" d="M136.9,239.2l-8.2-14.3c-1.6-2.8-5.2-3.8-8-2.1c-0.9,0.5-1.6,1.3-2.1,2.1l-8.2,14.3l-8.2,14.3 c-1.6,2.8-0.7,6.4,2.2,8c0.9,0.5,1.9,0.8,2.9,0.8h33c3.2,0,5.9-2.6,5.9-5.9c0-1-0.3-2-0.8-2.9L136.9,239.2z M140,258.5h-33 c-1.1,0-2.1-0.9-2.1-2.1c0-0.4,0.1-0.7,0.3-1l8.2-14.3l8.2-14.3c0.6-1,1.8-1.3,2.8-0.8c0.3,0.2,0.6,0.4,0.8,0.8l8.2,14.3l8.2,14.3 c0.6,1,0.2,2.2-0.8,2.8C140.7,258.4,140.4,258.5,140,258.5L140,258.5z"></path> <path class="st9" d="M123.6,250.6c-0.5,0-1,0.2-1.4,0.6c-0.4,0.4-0.6,0.8-0.5,1.3c0,0.5,0.2,1,0.6,1.4c0.4,0.3,0.9,0.5,1.4,0.5 c0.5,0,1-0.2,1.3-0.5c0.4-0.4,0.6-0.9,0.6-1.4c0-0.5-0.2-1-0.6-1.3C124.6,250.8,124.1,250.6,123.6,250.6z"></path> <path class="st9" d="M123.7,235.2c-0.5,0-1.1,0.2-1.5,0.6c-0.4,0.5-0.6,1-0.5,1.6c0,0.5,0,1.4,0.1,2.6l0.4,6.1 c0,0.6,0.2,1.2,0.4,1.8c0.2,0.4,0.5,0.6,1,0.6c0.4,0,0.8-0.2,1-0.6c0.2-0.5,0.4-1.1,0.4-1.7l0.5-6.2c0.1-0.6,0.1-1.1,0.1-1.7 c0-0.7-0.1-1.5-0.4-2.2C124.9,235.4,124.3,235.1,123.7,235.2z"></path> <g class="st10"> <path class="st11" d="M153.4,362h-0.1c-1.1,0-2,0.9-2,2s0.9,2,2,2h0.1c1.1,0,2-0.9,2-2S154.5,362,153.4,362z"></path> <path class="st11" d="M125,362h-0.1c-1.1,0-2,0.9-2,2c0,1.1,0.9,2,2,2c0,0,0,0,0.1,0c1.1,0,2-0.9,2-2S126.1,362,125,362L125,362z"></path> <path class="st11" d="M110.8,362h-0.1c-1.1,0-2,0.9-2,2c0,1.1,0.9,2,2,2c0,0,0,0,0.1,0c1.1,0,2-0.9,2-2S111.9,362,110.8,362 L110.8,362z"></path> <path class="st11" d="M146.3,362h-0.1c-1.1,0-2,0.9-2,2c0,1.1,0.9,2,2,2c0,0,0,0,0.1,0c1.1,0,2-0.9,2-2S147.4,362,146.3,362 L146.3,362z"></path> <path class="st11" d="M103.7,362h-0.1c-1.1,0-2,0.9-2,2s0.9,2,2,2h0.1c1.1,0,2-0.9,2-2S104.8,362,103.7,362z"></path> <path class="st11" d="M139.2,362h-0.1c-1.1,0-2,0.9-2,2s0.9,2,2,2h0.1c1.1,0,2-0.9,2-2S140.3,362,139.2,362z"></path> <path class="st11" d="M132.1,362H132c-1.1,0-2,0.9-2,2c0,1.1,0.9,2,2,2c0,0,0,0,0.1,0c1.1,0,2-0.9,2-2S133.2,362,132.1,362 L132.1,362z"></path> <path class="st11" d="M117.9,362h-0.1c-1.1,0-2,0.9-2,2s0.9,2,2,2h0.1c1.1,0,2-0.9,2-2S119,362,117.9,362z"></path> <path class="st11" d="M68.2,362h-0.1c-1.1,0-2,0.9-2,2s0.9,2,2,2h0.1c1.1,0,2-0.9,2-2S69.3,362,68.2,362z"></path> <path class="st11" d="M75.3,362h-0.1c-1.1,0-2,0.9-2,2c0,1.1,0.9,2,2,2c0,0,0,0,0.1,0c1.1,0,2-0.9,2-2S76.4,362,75.3,362L75.3,362z "></path> <path class="st11" d="M61.1,362H61c-1.1,0-2,0.9-2,2c0,1.1,0.9,2,2,2c0,0,0,0,0.1,0c1.1,0,2-0.9,2-2S62.2,362,61.1,362L61.1,362z"></path> <path class="st11" d="M96.6,362h-0.1c-1.1,0-2,0.9-2,2c0,1.1,0.9,2,2,2c0,0,0,0,0.1,0c1.1,0,2-0.9,2-2S97.7,362,96.6,362L96.6,362z "></path> <path class="st11" d="M82.4,362h-0.1c-1.1,0-2,0.9-2,2s0.9,2,2,2h0.1c1.1,0,2-0.9,2-2S83.5,362,82.4,362z"></path> <path class="st11" d="M89.5,362h-0.1c-1.1,0-2,0.9-2,2c0,1.1,0.9,2,2,2c0,0,0,0,0.1,0c1.1,0,2-0.9,2-2S90.6,362,89.5,362L89.5,362z "></path> <path class="st11" d="M259.9,362h-0.1c-1.1,0-2,0.9-2,2s0.9,2,2,2h0.1c1.1,0,2-0.9,2-2S261,362,259.9,362z"></path> <path class="st11" d="M231.5,362h-0.1c-1.1,0-2,0.9-2,2c0,1.1,0.9,2,2,2c0,0,0,0,0.1,0c1.1,0,2-0.9,2-2S232.6,362,231.5,362 L231.5,362z"></path> <path class="st11" d="M224.4,362h-0.1c-1.1,0-2,0.9-2,2s0.9,2,2,2h0.1c1.1,0,2-0.9,2-2S225.5,362,224.4,362z"></path> <path class="st11" d="M217.3,362h-0.1c-1.1,0-2,0.9-2,2c0,1.1,0.9,2,2,2c0,0,0,0,0.1,0c1.1,0,2-0.9,2-2S218.4,362,217.3,362 L217.3,362z"></path> <path class="st11" d="M238.6,362h-0.1c-1.1,0-2,0.9-2,2c0,1.1,0.9,2,2,2c0,0,0,0,0.1,0c1.1,0,2-0.9,2-2S239.7,362,238.6,362 L238.6,362z"></path> <path class="st11" d="M252.8,362h-0.1c-1.1,0-2,0.9-2,2c0,1.1,0.9,2,2,2c0,0,0,0,0.1,0c1.1,0,2-0.9,2-2S253.9,362,252.8,362 L252.8,362z"></path> <path class="st11" d="M210.2,362h-0.1c-1.1,0-2,0.9-2,2s0.9,2,2,2h0.1c1.1,0,2-0.9,2-2S211.3,362,210.2,362z"></path> <path class="st11" d="M245.7,362h-0.1c-1.1,0-2,0.9-2,2s0.9,2,2,2h0.1c1.1,0,2-0.9,2-2S246.8,362,245.7,362z"></path> <path class="st11" d="M188.9,362h-0.1c-1.1,0-2,0.9-2,2s0.9,2,2,2h0.1c1.1,0,2-0.9,2-2S190,362,188.9,362z"></path> <path class="st11" d="M181.8,362h-0.1c-1.1,0-2,0.9-2,2c0,1.1,0.9,2,2,2c0,0,0,0,0.1,0c1.1,0,2-0.9,2-2S182.9,362,181.8,362 L181.8,362z"></path> <path class="st11" d="M174.7,362h-0.1c-1.1,0-2,0.9-2,2s0.9,2,2,2h0.1c1.1,0,2-0.9,2-2S175.8,362,174.7,362z"></path> <path class="st11" d="M203.1,362H203c-1.1,0-2,0.9-2,2c0,1.1,0.9,2,2,2c0,0,0,0,0.1,0c1.1,0,2-0.9,2-2S204.2,362,203.1,362 L203.1,362z"></path> <path class="st11" d="M167.6,362h-0.1c-1.1,0-2,0.9-2,2c0,1.1,0.9,2,2,2c0,0,0,0,0.1,0c1.1,0,2-0.9,2-2S168.7,362,167.6,362 L167.6,362z"></path> <path class="st11" d="M196,362h-0.1c-1.1,0-2,0.9-2,2c0,1.1,0.9,2,2,2c0,0,0,0,0.1,0c1.1,0,2-0.9,2-2S197.1,362,196,362L196,362z"></path> <path class="st11" d="M160.5,362h-0.1c-1.1,0-2,0.9-2,2c0,1.1,0.9,2,2,2c0,0,0,0,0.1,0c1.1,0,2-0.9,2-2S161.6,362,160.5,362 L160.5,362z"></path> </g> <g class="st10"> <path class="st11" d="M310.1,128H310c-1.1,0-2,0.9-2,2s0.9,2,2,2h0.1c1.1,0,2-0.9,2-2S311.2,128,310.1,128z"></path> <path class="st11" d="M281.7,128h-0.1c-1.1,0-2,0.9-2,2c0,1.1,0.9,2,2,2c0,0,0,0,0.1,0c1.1,0,2-0.9,2-2S282.8,128,281.7,128 L281.7,128z"></path> <path class="st11" d="M267.5,128h-0.1c-1.1,0-2,0.9-2,2c0,1.1,0.9,2,2,2c0,0,0,0,0.1,0c1.1,0,2-0.9,2-2S268.6,128,267.5,128 L267.5,128z"></path> <path class="st11" d="M303,128h-0.1c-1.1,0-2,0.9-2,2c0,1.1,0.9,2,2,2c0,0,0,0,0.1,0c1.1,0,2-0.9,2-2S304.1,128,303,128L303,128z"></path> <path class="st11" d="M260.4,128h-0.1c-1.1,0-2,0.9-2,2s0.9,2,2,2h0.1c1.1,0,2-0.9,2-2S261.5,128,260.4,128z"></path> <path class="st11" d="M295.9,128h-0.1c-1.1,0-2,0.9-2,2s0.9,2,2,2h0.1c1.1,0,2-0.9,2-2S297,128,295.9,128z"></path> <path class="st11" d="M288.8,128h-0.1c-1.1,0-2,0.9-2,2c0,1.1,0.9,2,2,2c0,0,0,0,0.1,0c1.1,0,2-0.9,2-2S289.9,128,288.8,128 L288.8,128z"></path> <path class="st11" d="M274.6,128h-0.1c-1.1,0-2,0.9-2,2s0.9,2,2,2h0.1c1.1,0,2-0.9,2-2S275.7,128,274.6,128z"></path> <path class="st11" d="M224.9,128h-0.1c-1.1,0-2,0.9-2,2s0.9,2,2,2h0.1c1.1,0,2-0.9,2-2S226,128,224.9,128z"></path> <path class="st11" d="M232,128h-0.1c-1.1,0-2,0.9-2,2c0,1.1,0.9,2,2,2c0,0,0,0,0.1,0c1.1,0,2-0.9,2-2S233.1,128,232,128L232,128z"></path> <path class="st11" d="M217.8,128h-0.1c-1.1,0-2,0.9-2,2c0,1.1,0.9,2,2,2c0,0,0,0,0.1,0c1.1,0,2-0.9,2-2S218.9,128,217.8,128 L217.8,128z"></path> <path class="st11" d="M253.3,128h-0.1c-1.1,0-2,0.9-2,2c0,1.1,0.9,2,2,2c0,0,0,0,0.1,0c1.1,0,2-0.9,2-2S254.4,128,253.3,128 L253.3,128z"></path> <path class="st11" d="M239.1,128H239c-1.1,0-2,0.9-2,2s0.9,2,2,2h0.1c1.1,0,2-0.9,2-2S240.2,128,239.1,128z"></path> <path class="st11" d="M246.2,128h-0.1c-1.1,0-2,0.9-2,2c0,1.1,0.9,2,2,2c0,0,0,0,0.1,0c1.1,0,2-0.9,2-2S247.3,128,246.2,128 L246.2,128z"></path> <path class="st11" d="M416.6,128L416.6,128c-1.2,0-2.1,0.9-2.1,2s0.9,2,2,2h0.1c1.1,0,2-0.9,2-2S417.7,128,416.6,128z"></path> <path class="st11" d="M388.2,128L388.2,128c-1.2,0-2.1,0.9-2.1,2c0,1.1,0.9,2,2,2c0,0,0,0,0.1,0c1.1,0,2-0.9,2-2 S389.3,128,388.2,128L388.2,128z"></path> <path class="st11" d="M381.1,128L381.1,128c-1.2,0-2.1,0.9-2.1,2s0.9,2,2,2h0.1c1.1,0,2-0.9,2-2S382.2,128,381.1,128z"></path> <path class="st11" d="M374,128L374,128c-1.2,0-2.1,0.9-2,2c0,1.1,0.9,2,2,2s2-0.9,2-2S375.1,128,374,128L374,128z"></path> <path class="st11" d="M395.3,128L395.3,128c-1.2,0-2.1,0.9-2.1,2s0.9,2,2,2s2-0.9,2-2S396.3,128,395.3,128L395.3,128z"></path> <path class="st11" d="M409.5,128L409.5,128c-1.2,0-2.1,0.9-2,2c0,1.1,0.9,2,2,2s2-0.9,2-2S410.6,128,409.5,128L409.5,128z"></path> <path class="st11" d="M366.9,128L366.9,128c-1.2,0-2.1,0.9-2.1,2s0.9,2,2,2h0.1c1.1,0,2-0.9,2-2S368,128,366.9,128z"></path> <path class="st11" d="M402.4,128L402.4,128c-1.2,0-2.1,0.9-2.1,2s0.9,2,2,2h0.1c1.1,0,2-0.9,2-2S403.5,128,402.4,128z"></path> <path class="st11" d="M345.6,128L345.6,128c-1.2,0-2.1,0.9-2.1,2s0.9,2,2,2h0.1c1.1,0,2-0.9,2-2S346.7,128,345.6,128z"></path> <path class="st11" d="M338.5,128L338.5,128c-1.2,0-2.1,0.9-2,2c0,1.1,0.9,2,2,2s2-0.9,2-2S339.6,128,338.5,128L338.5,128z"></path> <path class="st11" d="M331.4,128L331.4,128c-1.2,0-2.1,0.9-2.1,2s0.9,2,2,2h0.1c1.1,0,2-0.9,2-2S332.5,128,331.4,128z"></path> <path class="st11" d="M359.8,128L359.8,128c-1.2,0-2.1,0.9-2.1,2s0.9,2,2,2s2-0.9,2-2S360.8,128,359.8,128L359.8,128z"></path> <path class="st11" d="M324.3,128L324.3,128c-1.2,0-2.1,0.9-2.1,2s0.9,2,2,2s2-0.9,2-2S325.3,128,324.3,128L324.3,128z"></path> <path class="st11" d="M352.7,128L352.7,128c-1.2,0-2.1,0.9-2.1,2c0,1.1,0.9,2,2,2c0,0,0,0,0.1,0c1.1,0,2-0.9,2-2 S353.8,128,352.7,128L352.7,128z"></path> <path class="st11" d="M317.2,128L317.2,128c-1.2,0-2.1,0.9-2.1,2c0,1.1,0.9,2,2,2c0,0,0,0,0.1,0c1.1,0,2-0.9,2-2 S318.3,128,317.2,128L317.2,128z"></path> </g> </svg> 